<svg version="1.1" xmlns="http://www.w3.org/2000/svg" xmlns:xlink="http://www.w3.org/1999/xlink" viewport="0 0 488 216" overflow="hidden" width="488" height="216"><defs><g id="cl"><path fill="none" d="M0,0v168" stroke-width="1" stroke-dasharray="2" stroke="#CCC"/></g></defs><rect width="100%" height="100%" fill="#FFF"/><text x="244" y="24" text-anchor="middle" dominant-baseline="middle" font-family="Helvetica" font-size="24" fill="#000" letter-spacing="0"><tspan>Timing Schema</tspan></text><g><use transform="translate(48,40)" xlink:href="#cl"/><use transform="translate(96,40)" xlink:href="#cl"/><use transform="translate(144,40)" xlink:href="#cl"/><use transform="translate(192,40)" xlink:href="#cl"/><use transform="translate(240,40)" xlink:href="#cl"/><use transform="translate(288,40)" xlink:href="#cl"/><use transform="translate(336,40)" xlink:href="#cl"/><use transform="translate(384,40)" xlink:href="#cl"/><use transform="translate(432,40)" xlink:href="#cl"/><use transform="translate(480,40)" xlink:href="#cl"/></g><g><g transform="translate(8,48)"><g transform="translate(0,12)"><text dominant-baseline="middle" font-family="Helvetica" font-size="14" fill="#000" letter-spacing="0"><tspan>clk</tspan></text></g><g transform="translate(40)"><path fill="none" d="M0,24v-24h24v24h24v-24h24v24h24v-24h24v24h24v-24h24v24h24v-24h24v24h24v-24h24v24h24v-24h24v24h24v-24h24v24h24v-24h24v24h24" stroke-width="1" stroke="#000"/></g></g><g transform="translate(8,80)"><g transform="translate(0,12)"><text dominant-baseline="middle" font-family="Helvetica" font-size="14" fill="#000" letter-spacing="0"><tspan>req</tspan></text></g><g transform="translate(40)"><path fill="none" d="M0,24h44l8,-24h40l8,24h332" stroke-width="1" stroke="#000"/></g></g><g transform="translate(8,112)"><g transform="translate(0,12)"><text dominant-baseline="middle" font-family="Helvetica" font-size="14" fill="#000" letter-spacing="0"><tspan>done</tspan></text></g><g transform="translate(40)"><path fill="none" d="M0,24h332l8,-24h40l8,24h44" stroke-width="1" stroke="#000"/></g></g><g transform="translate(8,144)"><g transform="translate(0,12)"><text dominant-baseline="middle" font-family="Helvetica" font-size="14" fill="#000" letter-spacing="0"><tspan>done</tspan></text></g><g transform="translate(40)"><path fill="none" d="M0,24h332l8,-24h40l8,24h44" stroke-width="1" stroke="#000"/></g></g><g transform="translate(8,176)"><g transform="translate(0,12)"><text dominant-baseline="middle" font-family="Helvetica" font-size="14" fill="#000" letter-spacing="0"><tspan>state</tspan></text></g><g transform="translate(40)"><path fill="#FFF" d="M0,0h44l4,12l-4,12h-44v-24z" stroke="none"/><path fill="none" d="M0,0h44l4,12l-4,12h-44m0,-24" stroke-width="1" stroke="#000"/><g transform="translate(24,12)"><text text-anchor="middle" dominant-baseline="middle" font-family="Helvetica" font-size="14" fill="#000" letter-spacing="0"><tspan>Idle</tspan></text></g><path fill="#FFF" d="M48,12l4,-12h88l4,12l-4,12h-88l-4,-12z" stroke-width="1" stroke="#000"/><g transform="translate(96,12)"><text text-anchor="middle" dominant-baseline="middle" font-family="Helvetica" font-size="14" fill="#000" letter-spacing="0"><tspan>Fetch</tspan></text></g><path fill="#FFF" d="M144,12l4,-12h88l4,12l-4,12h-88l-4,-12z" stroke-width="1" stroke="#000"/><g transform="translate(192,12)"><text text-anchor="middle" dominant-baseline="middle" font-family="Helvetica" font-size="14" fill="#000" letter-spacing="0"><tspan>Calculate</tspan></text></g><path fill="#FFF" d="M240,12l4,-12h88l4,12l-4,12h-88l-4,-12z" stroke-width="1" stroke="#000"/><g transform="translate(288,12)"><text text-anchor="middle" dominant-baseline="middle" font-family="Helvetica" font-size="14" fill="#000" letter-spacing="0"><tspan>Return</tspan></text></g><path fill="#FFF" d="M336,12l4,-12h92v24h-92l-4,-12z" stroke="none"/><path fill="none" d="M336,12l4,-12h92m0,24h-92l-4,-12" stroke-width="1" stroke="#000"/><g transform="translate(384,12)"><text text-anchor="middle" dominant-baseline="middle" font-family="Helvetica" font-size="14" fill="#000" letter-spacing="0"><tspan>Idle</tspan></text></g></g></g></g></svg>