<svg version="1.1" xmlns="http://www.w3.org/2000/svg" xmlns:xlink="http://www.w3.org/1999/xlink" viewport="0 0 448 216" overflow="hidden" width="448" height="216"><defs><pattern id="x-bg" patternUnits="userSpaceOnUse" width="4" height="10" patternTransform="rotate(45)"><line x1="0" y="0" x2="0" y2="10" stroke="#000" stroke-width="1"/></pattern><g id="cl"><path fill="none" d="M0,0v136" stroke-width="1" stroke-dasharray="2" stroke="#CCC"/></g></defs><rect width="100%" height="100%" fill="#FFF"/><text x="224" y="24" text-anchor="middle" dominant-baseline="middle" font-family="Helvetica" font-size="24" fill="#000" letter-spacing="0"><tspan>Hello World!</tspan></text><g><use transform="translate(8,40)" xlink:href="#cl"/><use transform="translate(56,40)" xlink:href="#cl"/><use transform="translate(104,40)" xlink:href="#cl"/><use transform="translate(152,40)" xlink:href="#cl"/><use transform="translate(200,40)" xlink:href="#cl"/><use transform="translate(248,40)" xlink:href="#cl"/><use transform="translate(296,40)" xlink:href="#cl"/><use transform="translate(344,40)" xlink:href="#cl"/><use transform="translate(392,40)" xlink:href="#cl"/><use transform="translate(440,40)" xlink:href="#cl"/></g><g><g transform="translate(8,48)"><path fill="url(#x-bg)" d="M0,0h44l4,12l-4,12h-44v-24z" stroke="none"/><path fill="none" d="M0,0h44l4,12l-4,12h-44m0,-24" stroke-width="1" stroke="#000"/><path fill="url(#x-bg)" d="M48,12l4,-12h40l4,12l-4,12h-40l-4,-12z" stroke-width="1" stroke="#000"/><path fill="url(#x-bg)" d="M96,12l4,-12h40l4,12l-4,12h-40l-4,-12z" stroke-width="1" stroke="#000"/><path fill="url(#x-bg)" d="M144,12l4,-12h40l4,12l-4,12h-40l-4,-12z" stroke-width="1" stroke="#000"/><path fill="url(#x-bg)" d="M192,12l4,-12h40l4,12l-4,12h-40l-4,-12z" stroke-width="1" stroke="#000"/><path fill="url(#x-bg)" d="M240,12l4,-12h40l4,12l-4,12h-40l-4,-12z" stroke-width="1" stroke="#000"/><path fill="url(#x-bg)" d="M288,12l4,-12h40l4,12l-4,12h-40l-4,-12z" stroke-width="1" stroke="#000"/><path fill="url(#x-bg)" d="M336,12l4,-12h44v24h-44l-4,-12z" stroke="none"/><path fill="none" d="M336,12l4,-12h44m0,24h-44l-4,-12" stroke-width="1" stroke="#000"/></g><g transform="translate(8,80)"><path fill="#FFF" d="M0,0h44l4,12l-4,12h-44v-24z" stroke="none"/><path fill="none" d="M0,0h44l4,12l-4,12h-44m0,-24" stroke-width="1" stroke="#000"/><path fill="#FFF" d="M48,12l4,-12h40l4,12l-4,12h-40l-4,-12z" stroke-width="1" stroke="#000"/><path fill="#FFF" d="M96,12l4,-12h40l4,12l-4,12h-40l-4,-12z" stroke-width="1" stroke="#000"/><path fill="#FFF" d="M144,12l4,-12h40l4,12l-4,12h-40l-4,-12z" stroke-width="1" stroke="#000"/><path fill="#FFF" d="M192,12l4,-12h40l4,12l-4,12h-40l-4,-12z" stroke-width="1" stroke="#000"/><path fill="#FFF" d="M240,12l4,-12h40l4,12l-4,12h-40l-4,-12z" stroke-width="1" stroke="#000"/><path fill="#FFF" d="M288,12l4,-12h44v24h-44l-4,-12z" stroke="none"/><path fill="none" d="M288,12l4,-12h44m0,24h-44l-4,-12" stroke-width="1" stroke="#000"/></g><g transform="translate(8,112)"><path fill="#F7F7A1" d="M0,0h44l4,12l-4,12h-44v-24z" stroke="none"/><path fill="none" d="M0,0h44l4,12l-4,12h-44m0,-24" stroke-width="1" stroke="#000"/><path fill="#F7F7A1" d="M48,12l4,-12h40l4,12l-4,12h-40l-4,-12z" stroke-width="1" stroke="#000"/><path fill="#F7F7A1" d="M96,12l4,-12h40l4,12l-4,12h-40l-4,-12z" stroke-width="1" stroke="#000"/><path fill="#F7F7A1" d="M144,12l4,-12h40l4,12l-4,12h-40l-4,-12z" stroke-width="1" stroke="#000"/><path fill="#F7F7A1" d="M192,12l4,-12h40l4,12l-4,12h-40l-4,-12z" stroke-width="1" stroke="#000"/><path fill="#F7F7A1" d="M240,12l4,-12h40l4,12l-4,12h-40l-4,-12z" stroke-width="1" stroke="#000"/><path fill="#F7F7A1" d="M288,12l4,-12h40l4,12l-4,12h-40l-4,-12z" stroke-width="1" stroke="#000"/><path fill="#F7F7A1" d="M336,12l4,-12h40l4,12l-4,12h-40l-4,-12z" stroke-width="1" stroke="#000"/><path fill="#F7F7A1" d="M384,12l4,-12h44v24h-44l-4,-12z" stroke="none"/><path fill="none" d="M384,12l4,-12h44m0,24h-44l-4,-12" stroke-width="1" stroke="#000"/></g><g transform="translate(8,144)"><path fill="#F9D49F" d="M0,0h44l4,12l-4,12h-44v-24z" stroke="none"/><path fill="none" d="M0,0h44l4,12l-4,12h-44m0,-24" stroke-width="1" stroke="#000"/><path fill="#F9D49F" d="M48,12l4,-12h40l4,12l-4,12h-40l-4,-12z" stroke-width="1" stroke="#000"/><path fill="#F9D49F" d="M96,12l4,-12h40l4,12l-4,12h-40l-4,-12z" stroke-width="1" stroke="#000"/><path fill="#F9D49F" d="M144,12l4,-12h44v24h-44l-4,-12z" stroke="none"/><path fill="none" d="M144,12l4,-12h44m0,24h-44l-4,-12" stroke-width="1" stroke="#000"/></g></g><text x="216" y="192" text-anchor="middle" dominant-baseline="middle" font-family="Helvetica" font-size="24" fill="#000" letter-spacing="0"><tspan>Bye World!</tspan></text></svg>