<svg version="1.1" xmlns="http://www.w3.org/2000/svg" xmlns:xlink="http://www.w3.org/1999/xlink" viewport="0 0 386 120" overflow="hidden" width="386" height="120"><defs><pattern id="x-bg" patternUnits="userSpaceOnUse" width="4" height="10" patternTransform="rotate(45)"><line x1="0" y="0" x2="0" y2="10" stroke="#000" stroke-width="1"/></pattern><g id="pei"><path d="M-4,4L0,-4L4,4H-8z" fill="#000" stroke="none"/></g><g id="cl"><path fill="none" d="M0,0v104" stroke-width="1" stroke-dasharray="2" stroke="#CCC"/></g></defs><rect width="100%" height="100%" fill="#FFF"/><g><use transform="translate(42,8)" xlink:href="#cl"/><use transform="translate(90,8)" xlink:href="#cl"/><use transform="translate(138,8)" xlink:href="#cl"/><use transform="translate(186,8)" xlink:href="#cl"/><use transform="translate(234,8)" xlink:href="#cl"/><use transform="translate(282,8)" xlink:href="#cl"/><use transform="translate(330,8)" xlink:href="#cl"/><use transform="translate(378,8)" xlink:href="#cl"/></g><g><g transform="translate(8,16)"><g transform="translate(0,12)"><text dominant-baseline="middle" font-family="Helvetica" font-size="14" fill="#000" letter-spacing="0"><tspan>clk</tspan></text></g><g transform="translate(34)"><path fill="none" d="M0,24v-24h24v24h24v-24h24v24h24v-24h24v24h24v-24h24v24h24v-24h24v24h24v-24h24v24h24v-24h24v24h24" stroke-width="1" stroke="#000"/><use transform="translate(0,12)" xlink:href="#pei"/><use transform="translate(48,12)" xlink:href="#pei"/><use transform="translate(96,12)" xlink:href="#pei"/><use transform="translate(144,12)" xlink:href="#pei"/><use transform="translate(192,12)" xlink:href="#pei"/><use transform="translate(240,12)" xlink:href="#pei"/><use transform="translate(288,12)" xlink:href="#pei"/></g></g><g transform="translate(8,48)"><g transform="translate(0,12)"><text dominant-baseline="middle" font-family="Helvetica" font-size="14" fill="#000" letter-spacing="0"><tspan>bus</tspan></text></g><g transform="translate(34)"><path fill="url(#x-bg)" d="M0,0h92l4,12l-4,12h-92v-24z" stroke="none"/><path fill="none" d="M0,0h92l4,12l-4,12h-92m0,-24" stroke-width="1" stroke="#000"/><path fill="#FFF" d="M96,12l4,-12h40l4,12l-4,12h-40l-4,-12z" stroke-width="1" stroke="#000"/><g transform="translate(120,12)"><text text-anchor="middle" dominant-baseline="middle" font-family="Helvetica" font-size="14" fill="#000" letter-spacing="0"><tspan>head</tspan></text></g><path fill="#FFF" d="M144,12l4,-12h88l4,12l-4,12h-88l-4,-12z" stroke-width="1" stroke="#000"/><g transform="translate(192,12)"><text text-anchor="middle" dominant-baseline="middle" font-family="Helvetica" font-size="14" fill="#000" letter-spacing="0"><tspan>body</tspan></text></g><path fill="#FFF" d="M240,12l4,-12h40l4,12l-4,12h-40l-4,-12z" stroke-width="1" stroke="#000"/><g transform="translate(264,12)"><text text-anchor="middle" dominant-baseline="middle" font-family="Helvetica" font-size="14" fill="#000" letter-spacing="0"><tspan>tail</tspan></text></g><path fill="url(#x-bg)" d="M288,12l4,-12h44v24h-44l-4,-12z" stroke="none"/><path fill="none" d="M288,12l4,-12h44m0,24h-44l-4,-12" stroke-width="1" stroke="#000"/></g></g><g transform="translate(8,80)"><g transform="translate(0,12)"><text dominant-baseline="middle" font-family="Helvetica" font-size="14" fill="#000" letter-spacing="0"><tspan>wire</tspan></text></g><g transform="translate(34)"><path fill="none" d="M0,24h92l8,-24h136l8,24h92" stroke-width="1" stroke="#000"/></g></g></g></svg>